<?xml version="1.0" encoding="iso-8859-1"?>
<!-- Uploaded to: SVG Repo, www.svgrepo.com, Generator: SVG Repo Mixer Tools -->
<svg height="800px" width="800px" version="1.1" id="Layer_1" xmlns="http://www.w3.org/2000/svg" xmlns:xlink="http://www.w3.org/1999/xlink" 
	 viewBox="0 0 511.983 511.983" xml:space="preserve">
<path style="fill:#CCD1D9;" d="M246.483,206.011c-2.43-2.328-5.812-3.359-9.125-2.812l-52.584,8.797
	c-2.273,0.375-4.359,1.484-5.953,3.155L24.35,376.958c-1.953,2.047-3.008,4.781-2.945,7.609c0.07,2.828,1.25,5.516,3.297,7.469
	l46.241,44.139c2.062,1.984,4.718,2.953,7.367,2.953c2.812,0,5.617-1.109,7.711-3.297l154.47-161.807
	c1.593-1.672,2.601-3.812,2.875-6.094l6.336-52.937C250.108,211.651,248.913,208.323,246.483,206.011z"/>
<g>
	<path style="fill:#AAB2BC;" d="M183.142,267.837c0.141,5.875-4.523,10.766-10.414,10.906c-5.891,0.141-10.773-4.531-10.914-10.422
		c-0.133-5.891,4.531-10.766,10.422-10.906C178.126,257.274,183.009,261.946,183.142,267.837z"/>
	<path style="fill:#AAB2BC;" d="M183.845,297.992c0.141,5.891-4.523,10.766-10.414,10.906c-5.891,0.141-10.773-4.531-10.914-10.406
		c-0.133-5.891,4.531-10.781,10.414-10.922C178.822,287.445,183.704,292.101,183.845,297.992z"/>
	<path style="fill:#AAB2BC;" d="M153.682,298.695c0.141,5.891-4.523,10.766-10.414,10.906c-5.89,0.141-10.773-4.531-10.906-10.422
		c-0.141-5.891,4.523-10.766,10.414-10.906C148.666,288.133,153.549,292.804,153.682,298.695z"/>
	<path style="fill:#AAB2BC;" d="M154.385,328.85c0.141,5.891-4.523,10.781-10.414,10.906c-5.89,0.141-10.773-4.516-10.914-10.406
		c-0.133-5.891,4.531-10.78,10.414-10.921C149.362,318.304,154.252,322.96,154.385,328.85z"/>
	<path style="fill:#AAB2BC;" d="M124.222,329.554c0.141,5.891-4.523,10.766-10.414,10.906s-10.773-4.531-10.906-10.406
		c-0.141-5.891,4.523-10.78,10.414-10.921S124.089,323.663,124.222,329.554z"/>
	<path style="fill:#AAB2BC;" d="M124.925,359.708c0.141,5.891-4.523,10.781-10.413,10.906c-5.891,0.141-10.773-4.516-10.914-10.406
		c-0.133-5.89,4.531-10.78,10.421-10.905C119.902,349.162,124.792,353.818,124.925,359.708z"/>
</g>
<path style="fill:#E6E9ED;" d="M490.858,376.052C438.375,220.51,409.579,144.606,384.611,95.983
	c-28.64-55.811-52.716-73.764-82.278-84.653c-4.781-1.766-10.156,0.109-12.812,4.499c-0.406,0.688-10.344,17.297-16.499,42.39
	c-8.234,33.437-5.906,66.419,6.718,95.372c21.374,49.045,54.312,132.433,65.389,160.636l-15.108,6.406
	c-4.719,2-7.344,7.093-6.25,12.108l15.312,69.528c1.094,4.953,5.499,8.374,10.405,8.374c0.562,0,1.109-0.047,1.656-0.125
	l131.245-20.514c3.109-0.484,5.844-2.312,7.469-5.016C491.482,382.302,491.857,379.036,490.858,376.052z"/>
<path style="fill:#ED5564;" d="M437.297,351.974H74.677C33.498,351.974,0,385.473,0,426.643c0,41.171,33.499,74.67,74.677,74.67
	h362.62c41.187,0,74.686-33.499,74.686-74.67C511.982,385.473,478.483,351.974,437.297,351.974z"/>
<path style="opacity:0.1;fill:#080808;enable-background:new    ;" d="M437.297,490.641H74.677c-39.39,0-71.74-30.639-74.482-69.342
	C0.062,423.065,0,424.846,0,426.643c0,41.171,33.499,74.67,74.677,74.67h362.62c41.187,0,74.686-33.499,74.686-74.67
	c0-1.797-0.062-3.578-0.188-5.344C509.045,460.003,476.702,490.641,437.297,490.641z"/>
<path style="fill:#CCD1D9;" d="M437.39,437.393h-42.826c-5.891,0-10.672-4.766-10.672-10.656c0-5.906,4.781-10.672,10.672-10.672
	h42.826c5.906,0,10.672,4.766,10.672,10.672C448.062,432.628,443.297,437.393,437.39,437.393z"/>
<path style="fill:#E6E9ED;" d="M415.985,458.815c-5.906,0-10.671-4.781-10.671-10.672v-42.827c0-5.891,4.765-10.672,10.671-10.672
	c5.875,0,10.655,4.781,10.655,10.672v42.827C426.64,454.034,421.86,458.815,415.985,458.815z"/>
<path style="fill:#434A54;" d="M92.879,419.096c4.164,4.172,4.164,10.922,0,15.094c-4.164,4.156-10.921,4.156-15.085,0
	c-4.164-4.172-4.164-10.922,0-15.094C81.958,414.94,88.716,414.94,92.879,419.096z"/>
<path style="fill:#CCD1D9;" d="M417.954,242.744c-4.281,0-8.328-2.609-9.953-6.844l-28.858-75.045
	c-2.125-5.483,0.625-11.655,6.125-13.78c5.5-2.109,11.656,0.625,13.781,6.125l28.857,75.044c2.109,5.5-0.625,11.672-6.124,13.781
	C420.516,242.51,419.235,242.744,417.954,242.744z"/>
</svg>